<svg width="40" height="40" viewBox="0 0 40 40" fill="none" xmlns="http://www.w3.org/2000/svg">
<circle cx="20" cy="20" r="20" fill="#0E48AA"/>
<path d="M17.64 19.74C17.64 17.94 18.22 16.56 20.1 16.56C21.46 16.56 22.26 17.5 22.26 19.62C22.26 21.7 21.26 22.56 19.96 22.56C18.3 22.56 17.64 21.08 17.64 19.74ZM25.06 15.66C25.06 14.76 24.64 14.28 23.74 14.28C22.88 14.28 22.42 14.76 22.42 15.66V16.02H22.38C21.84 14.94 20.72 14.28 19.3 14.28C16.84 14.28 14.72 16.06 14.72 19.84C14.72 22.72 16.32 24.72 19.4 24.72C20.56 24.72 21.7 24.08 22.22 23.32H22.26V23.92C22.26 26.22 21.54 27.12 19.76 27.12C18.12 27.12 17.88 25.62 16.66 25.62C16.02 25.62 15.46 26.14 15.46 26.86C15.46 28.28 17.64 29.28 19.86 29.28C22.9 29.28 25.06 27.66 25.06 24.14V15.66Z" fill="white"/>
</svg>
